<svg width="48" height="48" viewBox="0 0 48 48" fill="none" xmlns="http://www.w3.org/2000/svg">
<path fill-rule="evenodd" clip-rule="evenodd" d="M24.6793 2.62889C24.2959 2.27399 23.704 2.27399 23.3206 2.62889L0.758099 23.5162C0.0906077 24.1341 0.527831 25.25 1.43744 25.25H5.99997V46C5.99997 46.5523 6.44769 47 6.99997 47H17C17.5523 47 18 46.5523 18 46V36C18 32.6863 20.6863 30 24 30C27.3137 30 30 32.6863 30 36V46C30 46.5523 30.4477 47 31 47H41C41.5523 47 42 46.5523 42 46V25.25H46.5625C47.4721 25.25 47.9093 24.1341 47.2418 23.5162L24.6793 2.62889Z" fill="#242424"/>
</svg>
