<svg width="183" height="46" viewBox="0 0 183 46" fill="none" xmlns="http://www.w3.org/2000/svg">
<path fill-rule="evenodd" clip-rule="evenodd" d="M22 10C22 4.47715 17.5228 0 12 0V36C12 41.5228 16.4772 46 22 46V10ZM24 10C24 4.47715 28.4772 0 34 0V36C34 41.5228 29.5228 46 24 46V10ZM10 37C4.47715 37 0 32.5228 0 27V12C5.52285 12 10 16.4772 10 22V37ZM36 22C36 16.4772 40.4772 12 46 12V27C46 32.5228 41.5228 37 36 37V22ZM64.295 33.3425C63.77 33.1325 63.28 32.765 62.825 32.24V24.33C63.35 23.6883 63.8867 23.2042 64.435 22.8775C64.995 22.5392 65.6542 22.37 66.4125 22.37C66.9842 22.37 67.4858 22.4692 67.9175 22.6675C68.3492 22.8658 68.7108 23.1808 69.0025 23.6125C69.3058 24.0442 69.5333 24.5983 69.685 25.275C69.8367 25.94 69.9125 26.7508 69.9125 27.7075C69.9125 28.7808 69.8192 29.6967 69.6325 30.455C69.4458 31.2133 69.1775 31.8317 68.8275 32.31C68.4775 32.7767 68.0575 33.1208 67.5675 33.3425C67.0892 33.5525 66.5525 33.6575 65.9575 33.6575C65.3858 33.6575 64.8317 33.5525 64.295 33.3425ZM65.1875 19.325C64.3242 19.7567 63.5367 20.3283 62.825 21.04V10.9075H57.995V37H61.1975C61.5125 37 61.7633 36.9358 61.95 36.8075C62.1367 36.6675 62.2708 36.4283 62.3525 36.09L62.545 35.005C62.825 35.3433 63.1225 35.6525 63.4375 35.9325C63.7525 36.2008 64.0967 36.4342 64.47 36.6325C64.8433 36.8308 65.2517 36.9825 65.695 37.0875C66.1383 37.2042 66.64 37.2625 67.2 37.2625C68.355 37.2625 69.3992 37.0292 70.3325 36.5625C71.2775 36.0958 72.0883 35.4367 72.765 34.585C73.4417 33.7333 73.9608 32.7125 74.3225 31.5225C74.6958 30.3208 74.8825 28.9908 74.8825 27.5325C74.8825 26.1792 74.7192 24.96 74.3925 23.875C74.0775 22.7783 73.6225 21.845 73.0275 21.075C72.4442 20.305 71.7325 19.7158 70.8925 19.3075C70.0642 18.8875 69.1308 18.6775 68.0925 18.6775C67.0192 18.6775 66.0508 18.8933 65.1875 19.325ZM84.4826 29.7725C85.2643 29.6208 86.2443 29.5158 87.4226 29.4575V32.2575C86.8393 32.8642 86.2501 33.3133 85.6551 33.605C85.0718 33.885 84.3776 34.025 83.5726 34.025C82.8726 34.025 82.3243 33.8792 81.9276 33.5875C81.5426 33.2958 81.3501 32.8 81.3501 32.1C81.3501 31.75 81.4435 31.4292 81.6301 31.1375C81.8285 30.8342 82.1551 30.5658 82.6101 30.3325C83.0768 30.0992 83.701 29.9125 84.4826 29.7725ZM81.1051 19.325C79.8218 19.7917 78.6493 20.5033 77.5876 21.46L78.4451 23C78.5968 23.2333 78.7834 23.4375 79.0051 23.6125C79.2384 23.7758 79.5243 23.8575 79.8626 23.8575C80.2476 23.8575 80.586 23.7817 80.8776 23.63C81.1693 23.4667 81.4785 23.2975 81.8051 23.1225C82.1434 22.9358 82.5343 22.7667 82.9776 22.615C83.421 22.4517 83.9751 22.37 84.6401 22.37C85.5385 22.37 86.2268 22.6383 86.7051 23.175C87.1834 23.7 87.4226 24.5283 87.4226 25.66V26.5875C85.3576 26.6342 83.6368 26.8383 82.2601 27.2C80.8951 27.55 79.7985 27.9992 78.9701 28.5475C78.1535 29.0842 77.576 29.685 77.2376 30.35C76.8993 31.015 76.7301 31.68 76.7301 32.345C76.7301 33.15 76.8585 33.8617 77.1151 34.48C77.3718 35.0983 77.7335 35.6175 78.2001 36.0375C78.6785 36.4458 79.2443 36.755 79.8976 36.965C80.5509 37.175 81.2743 37.28 82.0676 37.28C82.7093 37.28 83.2868 37.2275 83.8001 37.1225C84.3251 37.0175 84.8151 36.8658 85.2701 36.6675C85.7251 36.4575 86.1626 36.2008 86.5826 35.8975C87.0143 35.5942 87.4576 35.2442 87.9126 34.8475L88.2976 36.0025C88.4493 36.4108 88.6418 36.6792 88.8751 36.8075C89.1201 36.9358 89.4701 37 89.9251 37H92.1301V25.66C92.1301 24.6333 91.9726 23.6883 91.6576 22.825C91.3426 21.9617 90.8876 21.2208 90.2926 20.6025C89.7093 19.9725 88.9918 19.4825 88.1401 19.1325C87.3001 18.7825 86.3435 18.6075 85.2701 18.6075C83.7768 18.6075 82.3885 18.8467 81.1051 19.325ZM95.9003 18.9575V37H100.73V23.8575C101.162 23.3908 101.623 23.0292 102.113 22.7725C102.614 22.5042 103.145 22.37 103.705 22.37C104.58 22.37 105.239 22.615 105.683 23.105C106.138 23.5833 106.365 24.3942 106.365 25.5375V37H111.195V25.5375C111.195 25.0242 111.265 24.5692 111.405 24.1725C111.557 23.7758 111.761 23.4433 112.018 23.175C112.286 22.9067 112.589 22.7083 112.928 22.58C113.278 22.44 113.657 22.37 114.065 22.37C115.874 22.37 116.778 23.4258 116.778 25.5375V37H121.608V25.5375C121.608 24.4525 121.468 23.4842 121.188 22.6325C120.908 21.7808 120.499 21.0633 119.963 20.48C119.438 19.885 118.784 19.4358 118.003 19.1325C117.221 18.8292 116.323 18.6775 115.308 18.6775C114.736 18.6775 114.164 18.7417 113.593 18.87C113.033 18.9867 112.496 19.1733 111.983 19.43C111.481 19.6867 111.014 20.025 110.583 20.445C110.163 20.8533 109.807 21.3433 109.515 21.915C109.142 20.935 108.594 20.1533 107.87 19.57C107.147 18.975 106.231 18.6775 105.123 18.6775C104.598 18.6775 104.108 18.7358 103.653 18.8525C103.209 18.9692 102.795 19.1325 102.41 19.3425C102.025 19.5408 101.664 19.78 101.325 20.06C100.999 20.34 100.678 20.6433 100.363 20.97L100.083 19.7975C99.8844 19.2375 99.4819 18.9575 98.8753 18.9575H95.9003ZM131.732 33.3425C131.207 33.1325 130.717 32.765 130.262 32.24V24.33C130.787 23.6883 131.323 23.2042 131.872 22.8775C132.432 22.5392 133.091 22.37 133.849 22.37C134.421 22.37 134.922 22.4692 135.354 22.6675C135.786 22.8658 136.147 23.1808 136.439 23.6125C136.742 24.0442 136.97 24.5983 137.122 25.275C137.273 25.94 137.349 26.7508 137.349 27.7075C137.349 28.7808 137.256 29.6967 137.069 30.455C136.882 31.2133 136.614 31.8317 136.264 32.31C135.914 32.7767 135.494 33.1208 135.004 33.3425C134.526 33.5525 133.989 33.6575 133.394 33.6575C132.822 33.6575 132.268 33.5525 131.732 33.3425ZM132.624 19.325C131.761 19.7567 130.973 20.3283 130.262 21.04V10.9075H125.432V37H128.634C128.949 37 129.2 36.9358 129.387 36.8075C129.573 36.6675 129.707 36.4283 129.789 36.09L129.982 35.005C130.262 35.3433 130.559 35.6525 130.874 35.9325C131.189 36.2008 131.533 36.4342 131.907 36.6325C132.28 36.8308 132.688 36.9825 133.132 37.0875C133.575 37.2042 134.077 37.2625 134.637 37.2625C135.792 37.2625 136.836 37.0292 137.769 36.5625C138.714 36.0958 139.525 35.4367 140.202 34.585C140.878 33.7333 141.397 32.7125 141.759 31.5225C142.132 30.3208 142.319 28.9908 142.319 27.5325C142.319 26.1792 142.156 24.96 141.829 23.875C141.514 22.7783 141.059 21.845 140.464 21.075C139.881 20.305 139.169 19.7158 138.329 19.3075C137.501 18.8875 136.567 18.6775 135.529 18.6775C134.456 18.6775 133.487 18.8933 132.624 19.325ZM157.257 19.325C156.148 18.8933 154.917 18.6775 153.564 18.6775C152.199 18.6775 150.957 18.8933 149.837 19.325C148.728 19.7567 147.777 20.375 146.984 21.18C146.191 21.9733 145.572 22.9417 145.129 24.085C144.697 25.2283 144.482 26.5175 144.482 27.9525C144.482 29.3875 144.697 30.6825 145.129 31.8375C145.572 32.9808 146.191 33.955 146.984 34.76C147.777 35.565 148.728 36.1833 149.837 36.615C150.957 37.0467 152.199 37.2625 153.564 37.2625C154.917 37.2625 156.148 37.0467 157.257 36.615C158.365 36.1833 159.316 35.565 160.109 34.76C160.902 33.955 161.515 32.9808 161.947 31.8375C162.378 30.6825 162.594 29.3875 162.594 27.9525C162.594 26.5175 162.378 25.2283 161.947 24.085C161.515 22.9417 160.902 21.9733 160.109 21.18C159.316 20.375 158.365 19.7567 157.257 19.325ZM156.627 32.2225C155.962 33.1675 154.941 33.64 153.564 33.64C152.152 33.64 151.114 33.1675 150.449 32.2225C149.784 31.2658 149.452 29.8483 149.452 27.97C149.452 26.1033 149.784 24.6975 150.449 23.7525C151.114 22.7958 152.152 22.3175 153.564 22.3175C154.941 22.3175 155.962 22.7958 156.627 23.7525C157.292 24.6975 157.624 26.1033 157.624 27.97C157.624 29.8483 157.292 31.2658 156.627 32.2225ZM177.457 19.325C176.349 18.8933 175.118 18.6775 173.764 18.6775C172.399 18.6775 171.157 18.8933 170.037 19.325C168.928 19.7567 167.978 20.375 167.184 21.18C166.391 21.9733 165.773 22.9417 165.329 24.085C164.898 25.2283 164.682 26.5175 164.682 27.9525C164.682 29.3875 164.898 30.6825 165.329 31.8375C165.773 32.9808 166.391 33.955 167.184 34.76C167.978 35.565 168.928 36.1833 170.037 36.615C171.157 37.0467 172.399 37.2625 173.764 37.2625C175.118 37.2625 176.349 37.0467 177.457 36.615C178.565 36.1833 179.516 35.565 180.309 34.76C181.103 33.955 181.715 32.9808 182.147 31.8375C182.579 30.6825 182.794 29.3875 182.794 27.9525C182.794 26.5175 182.579 25.2283 182.147 24.085C181.715 22.9417 181.103 21.9733 180.309 21.18C179.516 20.375 178.565 19.7567 177.457 19.325ZM176.827 32.2225C176.162 33.1675 175.141 33.64 173.764 33.64C172.353 33.64 171.314 33.1675 170.649 32.2225C169.984 31.2658 169.652 29.8483 169.652 27.97C169.652 26.1033 169.984 24.6975 170.649 23.7525C171.314 22.7958 172.353 22.3175 173.764 22.3175C175.141 22.3175 176.162 22.7958 176.827 23.7525C177.492 24.6975 177.824 26.1033 177.824 27.97C177.824 29.8483 177.492 31.2658 176.827 32.2225Z" fill="#242424"/>
</svg>
